Coordinates
version=1
nRows=41
nColumns=38
inDegrees=no

Units are S.I. units (second, meters, Newtons, ...)
If the header above contains a line with 'inDegrees', this indicates whether rotational values are in degrees (yes) or radians (no).

endheader
time	pelvis_tilt	pelvis_list	pelvis_rotation	pelvis_tx	pelvis_ty	pelvis_tz	hip_flexion_r	hip_adduction_r	hip_rotation_r	knee_angle_r	ankle_angle_r	subtalar_angle_r	mtp_angle_r	hip_flexion_l	hip_adduction_l	hip_rotation_l	knee_angle_l	ankle_angle_l	subtalar_angle_l	mtp_angle_l	lumbar_extension	lumbar_bending	lumbar_rotation	arm_flex_r	arm_add_r	arm_rot_r	elbow_flex_r	pro_sup_r	wrist_flex_r	wrist_dev_r	arm_flex_l	arm_add_l	arm_rot_l	elbow_flex_l	pro_sup_l	wrist_flex_l	wrist_dev_l
1.63	2.89238	1.32191	-1.36272	0.875971	1.32387	0.996348	-0.260445	0.0381636	-0.233808	0.389768	0.167741	0	0	0.149595	-0.115996	-0.335107	0.207769	0.13782	0	0	-0.565038	0.104297	0.0852012	0.418377	-0.418701	0.0710209	1.18592	0.944842	0	0	0.31747	-0.283822	-0.0689886	1.14542	1.02133	0	0
1.64	2.84565	1.32688	-1.31437	0.874302	1.33602	0.993748	-0.268624	0.046257	-0.238431	0.386359	0.175682	0	0	0.161215	-0.119347	-0.338973	0.170915	0.138413	0	0	-0.554184	0.115962	0.0845153	0.415541	-0.421822	0.0728062	1.18932	0.942174	0	0	0.313993	-0.281943	-0.0711878	1.14709	1.02322	0	0
1.65	2.7953	1.3312	-1.26289	0.87264	1.34827	0.991055	-0.276751	0.0543691	-0.242361	0.38328	0.183283	0	0	0.168997	-0.121213	-0.331964	0.127769	0.134683	0	0	-0.543406	0.127786	0.0844987	0.412277	-0.424672	0.0734577	1.19258	0.940095	0	0	0.311063	-0.280224	-0.072242	1.14804	1.0249	0	0
1.66	2.74023	1.33515	-1.20739	0.87096	1.36069	0.988169	-0.284158	0.0625495	-0.245687	0.380971	0.190801	0	0	0.175477	-0.123769	-0.318172	0.0838638	0.129514	0	0	-0.532031	0.139929	0.0852714	0.408587	-0.427302	0.0732365	1.19533	0.939939	0	0	0.308409	-0.278618	-0.0722736	1.14812	1.02732	0	0
1.67	2.68138	1.33827	-1.14891	0.869331	1.37327	0.985103	-0.291299	0.0708062	-0.24843	0.379383	0.198418	0	0	0.180772	-0.127715	-0.299869	0.0412014	0.123318	0	0	-0.520463	0.152132	0.08689	0.404517	-0.429582	0.0719702	1.19758	0.943812	0	0	0.305951	-0.277171	-0.07133	1.14751	1.02972	0	0
1.68	2.62043	1.33982	-1.08949	0.867834	1.386	0.981936	-0.298937	0.0792711	-0.249625	0.378359	0.205352	0	0	0.184796	-0.133733	-0.279552	0.00209641	0.116444	0	0	-0.509625	0.164155	0.0895797	0.4004	-0.431552	0.0698918	1.20011	0.94557	0	0	0.303648	-0.275729	-0.0702623	1.1466	1.03064	0	0
1.69	2.57123	1.33817	-1.04428	0.866759	1.39841	0.978636	-0.308079	0.0915464	-0.241109	0.379219	0.206094	0	0	0.19876	-0.13972	-0.260759	0	0.114123	0	0	-0.503127	0.173309	0.0940244	0.397647	-0.43327	0.0691747	1.20277	0.946162	0	0	0.302156	-0.274653	-0.0701471	1.14582	1.03035	0	0
1.7	2.52568	1.33387	-1.0017	0.865449	1.41127	0.97571	-0.322075	0.0994187	-0.237626	0.377851	0.210114	0	0	0.20723	-0.150605	-0.253255	0	0.117704	0	0	-0.498734	0.183332	0.0978419	0.394772	-0.435246	0.0691216	1.20438	0.947123	0	0	0.30076	-0.273265	-0.0697613	1.14443	1.03048	0	0
1.71	2.48619	1.32784	-0.965785	0.864092	1.42445	0.97284	-0.338245	0.106572	-0.233445	0.376522	0.21309	0	0	0.21114	-0.161263	-0.246997	0	0.120911	0	0	-0.495723	0.193139	0.10155	0.392551	-0.436926	0.0702734	1.20524	0.946555	0	0	0.299402	-0.27225	-0.0692939	1.14244	1.02955	0	0
1.72	2.45212	1.32087	-0.936287	0.862728	1.43803	0.969969	-0.355611	0.11239	-0.228335	0.375737	0.215508	0	0	0.210894	-0.171491	-0.243451	0	0.123433	0	0	-0.493115	0.202402	0.105508	0.390168	-0.437871	0.0714521	1.20598	0.944598	0	0	0.298206	-0.271996	-0.0676365	1.13933	1.02753	0	0
1.73	2.42357	1.31419	-0.913537	0.861403	1.45205	0.967005	-0.372955	0.116045	-0.221569	0.376377	0.218066	0	0	0.20711	-0.180375	-0.244545	0	0.125235	0	0	-0.489848	0.210159	0.109733	0.386781	-0.437899	0.0716619	1.20712	0.943281	0	0	0.297087	-0.272825	-0.0639502	1.13511	1.02573	0	0
1.74	2.40154	1.30907	-0.898782	0.860136	1.46649	0.963901	-0.388368	0.116052	-0.213442	0.380795	0.221443	0	0	0.200203	-0.186819	-0.250551	0	0.126162	0	0	-0.485344	0.215127	0.114244	0.38201	-0.437363	0.0709824	1.20848	0.941798	0	0	0.295996	-0.274194	-0.0592151	1.13001	1.02373	0	0
1.75	2.387	1.30623	-0.893248	0.858999	1.48123	0.960665	-0.399925	0.111171	-0.204806	0.392209	0.225654	0	0	0.190252	-0.190097	-0.259583	0	0.126273	0	0	-0.479915	0.216147	0.119163	0.375965	-0.435818	0.0682478	1.20985	0.940351	0	0	0.29494	-0.27606	-0.054375	1.12479	1.02098	0	0
1.76	2.37546	1.30461	-0.891368	0.857652	1.49653	0.957639	-0.409502	0.0958398	-0.204211	0.40907	0.236392	0	0	0.170935	-0.193852	-0.277175	0	0.128232	0	0	-0.474058	0.215369	0.123038	0.369451	-0.433076	0.0644823	1.21018	0.939857	0	0	0.292415	-0.27776	-0.0525584	1.12122	1.01969	0	0
1.77	2.38876	1.30382	-0.915997	0.856794	1.51107	0.954506	-0.415084	0.0804818	-0.193402	0.43736	0.241871	0	0	0.164237	-0.192704	-0.288147	0.0164087	0.125141	0	0	-0.473461	0.206406	0.127559	0.364779	-0.428887	0.0606046	1.21043	0.939827	0	0	0.291045	-0.280927	-0.0516429	1.12016	1.01796	0	0
1.78	2.41171	1.30367	-0.951201	0.855904	1.52533	0.951465	-0.416856	0.0616987	-0.180094	0.473326	0.244137	0	0	0.157907	-0.188405	-0.303685	0.0421239	0.103408	0	0	-0.475346	0.193804	0.131234	0.362595	-0.423326	0.057108	1.20967	0.940107	0	0	0.289227	-0.285118	-0.0519243	1.12216	1.01654	0	0
1.79	2.43929	1.30471	-0.989648	0.854837	1.53892	0.948644	-0.412441	0.0421161	-0.164158	0.516909	0.240955	0	0	0.157113	-0.183128	-0.319851	0.0670017	0.0473587	0	0	-0.478946	0.178934	0.132584	0.363142	-0.415678	0.0526046	1.20757	0.940967	0	0	0.288652	-0.290183	-0.0529769	1.1269	1.01432	0	0
1.8	2.47105	1.30883	-1.03	0.853698	1.55162	0.946418	-0.399014	0.0223037	-0.145423	0.568422	0.229682	0	0	0.166709	-0.179435	-0.337295	0.104823	-0.0230252	0	0	-0.482752	0.160796	0.131656	0.365275	-0.405801	0.0461631	1.20354	0.941479	0	0	0.291203	-0.296145	-0.0525741	1.13247	1.01087	0	0
1.81	2.51356	1.3163	-1.07919	0.852776	1.56363	0.945175	-0.37768	0.0011218	-0.125572	0.626049	0.207544	0	0	0.184196	-0.17679	-0.356529	0.161126	-0.0719024	0	0	-0.486167	0.138012	0.129886	0.367274	-0.395118	0.0390313	1.19776	0.94095	0	0	0.298521	-0.303178	-0.0474855	1.13496	1.00797	0	0
1.82	2.56621	1.3251	-1.14002	0.852317	1.57555	0.944707	-0.351818	-0.0218878	-0.104321	0.686639	0.175637	0	0	0.200876	-0.174092	-0.37585	0.221779	-0.1004	0	0	-0.488626	0.111821	0.130883	0.368858	-0.38613	0.0333931	1.19041	0.942759	0	0	0.30872	-0.311027	-0.0369635	1.13351	1.0049	0	0
1.83	2.62169	1.33206	-1.2073	0.852263	1.58767	0.944645	-0.325836	-0.0442642	-0.0792576	0.745509	0.135859	0	0	0.210216	-0.171431	-0.395149	0.272774	-0.123852	0	0	-0.491048	0.085427	0.136706	0.370531	-0.379583	0.0289205	1.18186	0.95005	0	0	0.319239	-0.318882	-0.0228295	1.12917	1.00356	0	0
1.84	2.67807	1.33521	-1.27524	0.852021	1.59971	0.944881	-0.303216	-0.0638865	-0.0536805	0.80025	0.0935931	0	0	0.210724	-0.165341	-0.406642	0.310089	-0.134207	0	0	-0.496402	0.0614763	0.143333	0.372924	-0.375137	0.0256073	1.17442	0.958353	0	0	0.329239	-0.325052	-0.0111495	1.12506	1.00404	0	0
1.85	2.73004	1.33799	-1.33926	0.851644	1.61128	0.945123	-0.278701	-0.080352	-0.0252843	0.853984	0.0520148	0	0	0.207988	-0.156194	-0.414437	0.341315	-0.113557	0	0	-0.501872	0.0390553	0.150341	0.375526	-0.370895	0.0216799	1.16848	0.964091	0	0	0.338321	-0.329133	-0.00498537	1.12268	1.00092	0	0
1.86	2.77397	1.34255	-1.39656	0.851373	1.62225	0.94525	-0.24929	-0.0922723	0.00788869	0.908026	0.0151852	0	0	0.204846	-0.146021	-0.422266	0.365151	-0.0843553	0	0	-0.505382	0.0178465	0.158554	0.377758	-0.366313	0.0164445	1.16477	0.965618	0	0	0.346081	-0.331928	-0.0017876	1.12385	0.996638	0	0
1.87	2.80648	1.34905	-1.44198	0.851114	1.63282	0.945295	-0.216514	-0.0981848	0.0426592	0.960273	-0.0129868	0	0	0.202949	-0.137098	-0.429933	0.381142	-0.0660005	0	0	-0.506184	-0.000176709	0.166991	0.379233	-0.361803	0.0102986	1.16372	0.964393	0	0	0.35272	-0.333588	-4.84823e-05	1.12734	0.994353	0	0
1.88	2.81853	1.35973	-1.46732	0.85086	1.64326	0.945105	-0.178485	-0.096814	0.0787595	1.00968	-0.031909	0	0	0.206302	-0.133051	-0.439441	0.395519	-0.050086	0	0	-0.501061	-0.0129769	0.177301	0.379354	-0.357801	0.00297256	1.16427	0.963269	0	0	0.357528	-0.333522	0.000171423	1.13065	0.992853	0	0
1.89	2.80415	1.37043	-1.46215	0.850099	1.65387	0.945171	-0.143082	-0.0872429	0.109331	1.05083	-0.0421091	0	0	0.209604	-0.13252	-0.442705	0.406092	-0.0339138	0	0	-0.494502	-0.0165527	0.185416	0.380314	-0.355851	-0.001285	1.1649	0.962955	0	0	0.360244	-0.331909	-0.00251922	1.13244	0.990745	0	0
1.9	2.764	1.37833	-1.4274	0.848961	1.66464	0.945939	-0.113721	-0.0712159	0.133569	1.08252	-0.0426023	0	0	0.208546	-0.135042	-0.440961	0.411325	-0.0174905	0	0	-0.489846	-0.0118686	0.191187	0.383853	-0.356079	-0.00109308	1.16384	0.962235	0	0	0.361006	-0.330239	-0.00476762	1.13228	0.989022	0	0
1.91	2.7027	1.38365	-1.36911	0.847659	1.67544	0.947441	-0.0885461	-0.051045	0.152337	1.10658	-0.0324264	0	0	0.204739	-0.141241	-0.437992	0.414449	-0.000241734	0	0	-0.48687	-0.00141283	0.195315	0.390378	-0.357551	0.00327808	1.1602	0.961041	0	0	0.360187	-0.328957	-0.0068058	1.13082	0.987142	0	0
1.92	2.64297	1.38447	-1.30973	0.846171	1.6862	0.949882	-0.0700751	-0.0318251	0.163902	1.12168	-0.0150725	0	0	0.195933	-0.147188	-0.433474	0.414686	0.0134729	0	0	-0.488679	0.0105128	0.196477	0.396847	-0.358269	0.00776714	1.15717	0.962507	0	0	0.359206	-0.32839	-0.00887205	1.12947	0.986166	0	0
1.93	2.59202	1.38367	-1.25776	0.844725	1.69692	0.9529	-0.0549245	-0.0152708	0.16995	1.12842	0.00450781	0	0	0.184968	-0.151898	-0.428981	0.412775	0.0233445	0	0	-0.492252	0.0211521	0.195584	0.401938	-0.357647	0.0118964	1.15493	0.965619	0	0	0.357866	-0.327739	-0.0121295	1.1285	0.987305	0	0
1.94	2.54974	1.3838	-1.21377	0.843396	1.70766	0.956046	-0.0399245	-0.00227186	0.171449	1.12862	0.0244916	0	0	0.17437	-0.154704	-0.424531	0.409341	0.0308988	0	0	-0.494785	0.0294041	0.193554	0.40418	-0.355789	0.0135504	1.15454	0.968994	0	0	0.356274	-0.327579	-0.0162025	1.12806	0.987948	0	0
1.95	2.51271	1.3863	-1.17395	0.842106	1.71849	0.958964	-0.0233476	0.00711688	0.16858	1.12382	0.0438652	0	0	0.165735	-0.155271	-0.419385	0.404686	0.0371206	0	0	-0.49399	0.0356137	0.190366	0.403527	-0.353205	0.0126991	1.15548	0.970994	0	0	0.354	-0.328031	-0.0193861	1.12805	0.989482	0	0
1.96	2.47954	1.39072	-1.13622	0.840652	1.72942	0.961581	-0.00576978	0.0130301	0.160846	1.11427	0.061335	0	0	0.158921	-0.153629	-0.414153	0.399202	0.0422222	0	0	-0.490544	0.040786	0.185856	0.402332	-0.351392	0.0107604	1.15697	0.97337	0	0	0.351097	-0.328275	-0.0218832	1.12837	0.992695	0	0
1.97	2.44733	1.39604	-1.09804	0.839092	1.74043	0.963944	0.0122941	0.0168446	0.149781	1.10094	0.0778871	0	0	0.152388	-0.150335	-0.409414	0.391704	0.0464146	0	0	-0.485605	0.045655	0.181017	0.396656	-0.349836	0.00564781	1.162	0.981947	0	0	0.348135	-0.328034	-0.0237327	1.129	0.994409	0	0
1.98	2.41131	1.40041	-1.05558	0.837551	1.75155	0.966159	0.0292452	0.0207246	0.137067	1.08384	0.092792	0	0	0.144136	-0.147099	-0.405206	0.381648	0.0505026	0	0	-0.480611	0.0515639	0.176744	0.39039	-0.349436	0.000363362	1.16827	0.989684	0	0	0.344766	-0.327557	-0.0253247	1.1301	0.994036	0	0
1.99	2.36957	1.40342	-1.00733	0.836	1.76275	0.968191	0.0452016	0.0253453	0.123353	1.06356	0.105411	0	0	0.134513	-0.144749	-0.400995	0.370386	0.0554125	0	0	-0.475673	0.0591172	0.172917	0.384989	-0.350587	-0.00259103	1.17452	0.993636	0	0	0.340564	-0.326939	-0.0271805	1.13237	0.99332	0	0
2	2.32474	1.40561	-0.955391	0.834434	1.77401	0.96998	0.0606786	0.0300106	0.107832	1.04078	0.116092	0	0	0.1244	-0.142845	-0.395805	0.358552	0.0610778	0	0	-0.470324	0.0677846	0.168815	0.37968	-0.353055	-0.00302437	1.18072	0.995213	0	0	0.335703	-0.326432	-0.0285379	1.13572	0.992861	0	0
2.01	2.27933	1.40705	-0.902082	0.832936	1.78533	0.971553	0.0757559	0.0346707	0.090908	1.01625	0.125076	0	0	0.114179	-0.141516	-0.389978	0.347237	0.0674685	0	0	-0.464639	0.07686	0.164089	0.374389	-0.355391	-0.00479266	1.18657	0.988364	0	0	0.330461	-0.326163	-0.0299927	1.14001	0.993291	0	0
2.02	2.23798	1.408	-0.853512	0.831571	1.79657	0.97299	0.0906753	0.038843	0.0746748	0.990946	0.132757	0	0	0.103296	-0.140265	-0.385226	0.336357	0.0739234	0	0	-0.459291	0.0850348	0.159729	0.369792	-0.357635	-0.00748701	1.19168	0.973956	0	0	0.325201	-0.325628	-0.0319081	1.1446	0.995248	0	0
2.03	2.20773	1.40839	-0.816224	0.830271	1.8077	0.974403	0.104206	0.0415721	0.0583054	0.964626	0.139498	0	0	0.0908249	-0.138069	-0.380811	0.325397	0.0795271	0	0	-0.455348	0.0917619	0.155239	0.365837	-0.360271	-0.00600693	1.19521	0.972601	0	0	0.320405	-0.325102	-0.033319	1.14948	0.999236	0	0
